<svg width="107" height="559" viewBox="0 0 107 559" fill="none" xmlns="http://www.w3.org/2000/svg">
<rect x="52.8281" y="84" width="3" height="475" rx="1.5" fill="url(#paint0_linear_0_266)"/>
<g filter="url(#filter0_f_0_266)">
<rect x="37" y="28" width="32" height="32" rx="16" fill="#FFA28B"/>
</g>
<path d="M48.9855 34.1348C48.9855 32.9564 49.772 32 50.7411 32H56.2589C57.228 32 58.0145 32.9564 58.0145 34.1348V36.8796H62.7798C63.7489 36.8796 64.5354 37.836 64.5354 39.0145V56.7031C64.5355 57.2693 64.3505 57.8123 64.0212 58.2127C63.692 58.613 63.2454 58.838 62.7798 58.838H44.2202C43.7546 58.838 43.308 58.613 42.9788 58.2127C42.6495 57.8123 42.4645 57.2693 42.4645 56.7031V39.0145C42.4645 37.836 43.2511 36.8796 44.2202 36.8796H48.9855V34.1348ZM43.9694 46.6267V56.7031C43.9694 56.8715 44.0817 57.0081 44.2202 57.0081H62.7798C62.8463 57.0081 62.9101 56.976 62.9572 56.9188C63.0042 56.8616 63.0306 56.784 63.0306 56.7031V46.6267C62.2608 47.4234 61.2826 47.8603 60.2718 47.8588H46.7282C45.7174 47.8603 44.7392 47.4234 43.9694 46.6267ZM63.0306 42.6742V39.0145C63.0306 38.9336 63.0042 38.856 62.9572 38.7988C62.9101 38.7416 62.8463 38.7095 62.7798 38.7095H44.2202C44.1537 38.7095 44.0899 38.7416 44.0428 38.7988C43.9958 38.856 43.9694 38.9336 43.9694 39.0145V42.6742C43.9694 43.5639 44.26 44.4172 44.7774 45.0464C45.2948 45.6755 45.9965 46.0289 46.7282 46.0289H60.2718C61.0034 46.0289 61.7052 45.6755 62.2226 45.0464C62.74 44.4172 63.0306 43.5639 63.0306 42.6742ZM56.5097 34.1348C56.5097 34.054 56.4832 33.9764 56.4362 33.9192C56.3892 33.862 56.3254 33.8299 56.2589 33.8299H50.7411C50.6746 33.8299 50.6108 33.862 50.5638 33.9192C50.5168 33.9764 50.4903 34.054 50.4903 34.1348V36.8796H56.5097V34.1348Z" fill="white"/>
<defs>
<filter id="filter0_f_0_266" x="9" y="0" width="88" height="88" filterUnits="userSpaceOnUse" color-interpolation-filters="sRGB">
<feFlood flood-opacity="0" result="BackgroundImageFix"/>
<feBlend mode="normal" in="SourceGraphic" in2="BackgroundImageFix" result="shape"/>
<feGaussianBlur stdDeviation="14" result="effect1_foregroundBlur_0_266"/>
</filter>
<linearGradient id="paint0_linear_0_266" x1="54.3281" y1="84" x2="54.3281" y2="559" gradientUnits="userSpaceOnUse">
<stop stop-color="#FFD6CC"/>
<stop offset="0.333333" stop-color="#EC6547"/>
<stop offset="0.666667" stop-color="#EC6547"/>
<stop offset="1" stop-color="#0D1117"/>
</linearGradient>
</defs>
</svg>
