<svg width="44" height="43" viewBox="0 0 44 43" fill="none" xmlns="http://www.w3.org/2000/svg">
<g clip-path="url(#clip0_4_622)">
<rect width="43" height="42.8088" transform="translate(0.773987)" fill="#161B22"/>
<path d="M40.591 0H3.9486C2.19332 0 0.773987 1.37958 0.773987 3.08524V39.7152C0.773987 41.4208 2.19332 42.8088 3.9486 42.8088H40.591C42.3463 42.8088 43.774 41.4208 43.774 39.7235V3.08524C43.774 1.37958 42.3463 0 40.591 0ZM13.5312 36.4794H7.1484V16.0449H13.5312V36.4794ZM10.3398 13.2607C8.29059 13.2607 6.6361 11.6135 6.6361 9.58181C6.6361 7.55006 8.29059 5.90293 10.3398 5.90293C12.3806 5.90293 14.0351 7.55006 14.0351 9.58181C14.0351 11.6052 12.3806 13.2607 10.3398 13.2607ZM37.4164 36.4794H31.042V26.5465C31.042 24.1803 31 21.1285 27.7246 21.1285C24.4072 21.1285 23.9033 23.712 23.9033 26.3792V36.4794H17.5373V16.0449H23.6513V18.8375H23.7353C24.5836 17.2322 26.6664 15.5349 29.7654 15.5349C36.2238 15.5349 37.4164 19.7656 37.4164 25.2672V36.4794Z" fill="#939AFF"/>
</g>
<defs>
<clipPath id="clip0_4_622">
<rect width="43" height="42.8088" fill="white" transform="translate(0.773987)"/>
</clipPath>
</defs>
</svg>
